<svg xmlns="http://www.w3.org/2000/svg" xmlns:xlink="http://www.w3.org/1999/xlink"><symbol id="icon-clock" viewBox="0 0 14 14">
<path d="M2.21875 2.50391C3.55469 1.16797 5.14844 0.5 7 0.5C8.85156 0.5 10.4336 1.16797 11.7461 2.50391C13.082 3.81641 13.75 5.39844 13.75 7.25C13.75 9.10156 13.082 10.6953 11.7461 12.0312C10.4336 13.3438 8.85156 14 7 14C5.14844 14 3.55469 13.3438 2.21875 12.0312C0.90625 10.6953 0.25 9.10156 0.25 7.25C0.25 5.39844 0.90625 3.81641 2.21875 2.50391ZM10.9727 3.27734C9.87109 2.17578 8.54688 1.625 7 1.625C5.45312 1.625 4.12891 2.17578 3.02734 3.27734C1.92578 4.37891 1.375 5.70312 1.375 7.25C1.375 8.79688 1.92578 10.1211 3.02734 11.2227C4.12891 12.3242 5.45312 12.875 7 12.875C8.54688 12.875 9.87109 12.3242 10.9727 11.2227C12.0742 10.1211 12.625 8.79688 12.625 7.25C12.625 5.70312 12.0742 4.37891 10.9727 3.27734ZM6.4375 2.75H7.5625V6.6875H10.375V7.8125H7H6.4375V7.25V2.75Z" fill="#A9AEB8"/>
</symbol><symbol id="icon-phone" viewBox="0 0 16 16">
<path d="M3.04297 1.21875C3.30078 1.03125 3.57031 0.9375 3.85156 0.9375C4.15625 0.9375 4.4375 1.03125 4.69531 1.21875L4.73047 1.25391L4.76562 1.28906L7.01562 3.60938L7.05078 3.64453L7.01562 3.67969C7.27344 3.89062 7.40234 4.17188 7.40234 4.52344C7.40234 4.85156 7.28516 5.13281 7.05078 5.36719L5.92578 6.49219C6.32422 7.40625 6.85156 8.17969 7.50781 8.8125C8.16406 9.44531 8.92578 9.96094 9.79297 10.3594L10.8828 9.26953L10.918 9.23438C11.1523 9.02344 11.4453 8.91797 11.7969 8.91797C12.1484 8.91797 12.4414 9.02344 12.6758 9.23438L12.7109 9.30469L14.9609 11.5547C15.1953 11.7891 15.3125 12.082 15.3125 12.4336C15.3125 12.7852 15.1953 13.0781 14.9609 13.3125L13.2383 15.0703H13.2031C12.6172 15.5859 11.9609 15.7266 11.2344 15.4922C8.70312 14.4844 6.57031 13.125 4.83594 11.4141C2.96094 9.51562 1.60156 7.38281 0.757812 5.01562C0.5 4.26563 0.664062 3.63281 1.25 3.11719V3.08203L3.00781 1.28906V1.25391L3.04297 1.21875ZM3.99219 2.13281C3.94531 2.08594 3.89844 2.0625 3.85156 2.0625C3.82812 2.0625 3.79297 2.08594 3.74609 2.13281L2.02344 3.85547V3.89062C1.78906 4.07812 1.71875 4.32422 1.8125 4.62891C2.58594 6.83203 3.86328 8.82422 5.64453 10.6055C7.23828 12.1992 9.21875 13.4648 11.5859 14.4023C11.9141 14.5195 12.207 14.4609 12.4648 14.2266L14.1875 12.5391C14.2344 12.4688 14.2344 12.4102 14.1875 12.3633L11.8672 10.0781C11.8203 10.0078 11.7734 10.0078 11.7266 10.0781L10.3203 11.4844L10.0391 11.7305L9.6875 11.5547C8.65625 11.1328 7.70703 10.5234 6.83984 9.72656L6.73438 9.62109C6.3125 9.24609 5.9375 8.8125 5.60938 8.32031C5.28125 7.80469 5.04688 7.38281 4.90625 7.05469L4.69531 6.59766L4.58984 6.24609L4.83594 6L6.24219 4.59375C6.3125 4.54688 6.33594 4.5 6.3125 4.45312H6.27734L6.24219 4.41797L3.99219 2.13281Z" fill="#A9AEB8"/>
</symbol><symbol id="icon-point" viewBox="0 0 12 16">
<path d="M2.41406 2.41406C3.39844 1.42969 4.59375 0.9375 6 0.9375C7.40625 0.9375 8.60156 1.42969 9.58594 2.41406C10.5703 3.39844 11.0625 4.59375 11.0625 6C11.0625 6.65625 10.8047 7.54688 10.2891 8.67188C9.91406 9.58594 9.39844 10.5938 8.74219 11.6953C8.41406 12.2812 8.05078 12.8789 7.65234 13.4883C7.27734 14.0977 6.98438 14.5547 6.77344 14.8594L6.45703 15.3164L6 15.9844L5.54297 15.3164C4.76953 14.2148 4.00781 13.0078 3.25781 11.6953C2.60156 10.5938 2.08594 9.58594 1.71094 8.67188C1.19531 7.54688 0.9375 6.65625 0.9375 6C0.9375 4.59375 1.42969 3.39844 2.41406 2.41406ZM8.77734 3.22266C8.02734 2.44922 7.10156 2.0625 6 2.0625C4.89844 2.0625 3.96094 2.44922 3.1875 3.22266C2.4375 3.97266 2.0625 4.89844 2.0625 6C2.0625 6.49219 2.27344 7.24219 2.69531 8.25C3.04688 9.02344 3.5625 9.98438 4.24219 11.1328C4.82812 12.1406 5.41406 13.0781 6 13.9453C6.58594 13.0781 7.17188 12.1406 7.75781 11.1328C8.4375 9.98438 8.95312 9.02344 9.30469 8.25C9.72656 7.24219 9.9375 6.49219 9.9375 6C9.9375 4.89844 9.55078 3.97266 8.77734 3.22266ZM5.19141 5.22656C5.42578 4.99219 5.69531 4.875 6 4.875C6.30469 4.875 6.5625 4.99219 6.77344 5.22656C7.00781 5.4375 7.125 5.69531 7.125 6C7.125 6.30469 7.00781 6.57422 6.77344 6.80859C6.5625 7.01953 6.30469 7.125 6 7.125C5.69531 7.125 5.42578 7.01953 5.19141 6.80859C4.98047 6.57422 4.875 6.30469 4.875 6C4.875 5.69531 4.98047 5.4375 5.19141 5.22656Z" fill="#A9AEB8"/>
</symbol><symbol id="social-fb" viewBox="0 0 9 16">
<path d="M6.453 3.04987H8.375V0H6.1015C3.3595 0.125067 2.797 1.77493 2.75 3.5V5.02507H0.875V8H2.75V16H5.5625V8H7.88275L8.328 5.02507H5.5625V4.1C5.55495 3.96835 5.57212 3.83641 5.61302 3.71194C5.65392 3.58746 5.71772 3.47296 5.80067 3.37514C5.88362 3.27732 5.98405 3.19816 6.09607 3.1423C6.20809 3.08644 6.32944 3.05502 6.453 3.04987Z"/>
</symbol><symbol id="social-insta" viewBox="0 0 16 16">
<path d="M2.85795 0H13.767C14.3352 0 14.8182 0.212121 15.2159 0.636364C15.6136 1.06061 15.8125 1.57576 15.8125 2.18182V13.8182C15.8125 14.4242 15.6136 14.9394 15.2159 15.3636C14.8182 15.7879 14.3352 16 13.767 16H2.85795C2.28977 16 1.80682 15.7879 1.40909 15.3636C1.01136 14.9394 0.8125 14.4242 0.8125 13.8182V2.18182C0.8125 1.57576 1.01136 1.06061 1.40909 0.636364C1.80682 0.212121 2.28977 0 2.85795 0ZM11.7216 2.18182V4.36364H13.767V2.18182H11.7216ZM10.2301 5.95455C9.71875 5.37879 9.07955 5.09091 8.3125 5.09091C7.54545 5.09091 6.89205 5.37879 6.35227 5.95455C5.84091 6.5 5.58523 7.18182 5.58523 8C5.58523 8.81818 5.84091 9.51515 6.35227 10.0909C6.89205 10.6364 7.54545 10.9091 8.3125 10.9091C9.07955 10.9091 9.71875 10.6364 10.2301 10.0909C10.7699 9.51515 11.0398 8.81818 11.0398 8C11.0398 7.18182 10.7699 6.5 10.2301 5.95455ZM2.17614 6.54545V13.8182C2.17614 14.303 2.40341 14.5455 2.85795 14.5455H13.767C14.2216 14.5455 14.4489 14.303 14.4489 13.8182V6.54545H12.1477C12.3182 7.0303 12.4034 7.51515 12.4034 8C12.4034 9.21212 12.0057 10.2424 11.2102 11.0909C10.4148 11.9394 9.44886 12.3636 8.3125 12.3636C7.17614 12.3636 6.21023 11.9394 5.41477 11.0909C4.61932 10.2424 4.22159 9.21212 4.22159 8C4.22159 7.51515 4.30682 7.0303 4.47727 6.54545H2.17614Z"/>
</symbol><symbol id="social-vk" viewBox="0 0 19 11">
<path d="M9.17363 10.997H10.2884C10.3838 10.995 10.4776 10.9726 10.5638 10.9313C10.65 10.8899 10.7266 10.8305 10.7884 10.7569C10.8844 10.6045 10.9353 10.4274 10.935 10.2466C10.935 10.2466 10.9056 8.71613 11.6098 8.47604C12.2845 8.26604 13.1646 9.97645 14.1328 10.6369C14.5054 10.8886 14.947 11.0147 15.3945 10.997H17.8881C18.0641 10.997 19.1498 10.8469 18.5922 9.82505C18.5335 9.73509 18.2403 9.04491 16.7146 7.60436C15.1304 6.10395 15.3651 6.34404 17.2427 3.7629C18.3869 2.20231 18.8269 1.24194 18.7097 0.821943C18.6216 0.491897 17.7122 0.551762 17.7122 0.551762H14.8944C14.7739 0.535783 14.6513 0.556627 14.5425 0.611626C14.4396 0.688969 14.3587 0.792429 14.3078 0.911581C14.0207 1.69137 13.6673 2.44445 13.2518 3.16236C11.9901 5.35327 11.4916 5.47458 11.286 5.32318C10.8172 4.99313 10.9341 4.06286 10.9341 3.37236C10.9341 1.24163 11.2569 0.371218 10.3181 0.131126C9.88741 0.0187083 9.44154 -0.021838 8.99799 0.011081C8.0004 0.011081 7.1497 0.0110808 6.65091 0.251172C6.32807 0.401308 6.09337 0.761445 6.24025 0.791219C6.55575 0.824243 6.84795 0.974683 7.06032 1.21344C7.35378 1.60366 7.35378 2.53394 7.35378 2.53394C7.35378 2.53394 7.52974 5.02481 6.9725 5.32508C6.59122 5.53508 6.06305 5.11508 4.94827 3.13417C4.56443 2.44978 4.231 1.7376 3.95068 1.00344C3.89619 0.878017 3.81634 0.76558 3.71629 0.67339C3.5909 0.569756 3.43749 0.507033 3.27625 0.493481H0.606651C0.606651 0.493481 0.195991 0.46339 0.0491037 0.703481C0.0167122 0.779268 0 0.860981 0 0.943572C0 1.02616 0.0167122 1.10788 0.0491037 1.18366C0.0491037 1.18366 2.16178 6.22526 4.53823 8.74622C6.70935 11.1772 9.17363 10.997 9.17363 10.997Z"/>
</symbol></svg>